<?xml version="1.0" encoding="utf-8"?>
<!-- Generator: Adobe Illustrator 26.4.1, SVG Export Plug-In . SVG Version: 6.00 Build 0)  -->
<svg version="1.1" id="Layer_1" xmlns="http://www.w3.org/2000/svg" xmlns:xlink="http://www.w3.org/1999/xlink" x="0px" y="0px"
	 viewBox="0 0 326.47 325.9" style="enable-background:new 0 0 326.47 325.9;" xml:space="preserve">
<style type="text/css">
	.st0{fill:#FFFFFF;}
</style>
<path class="st0" d="M97.2,164.88c19.48,0,38.93,0,58.53,0c0-0.8,0-1.4,0-2.01c0-13.68,0-27.36,0-41.05c0-8.4,2.87-15.7,9-21.44
	c8.48-7.93,18.53-10.33,29.55-6.67c10.9,3.62,17.36,11.49,19.63,22.77c0.05,0.23,0.08,0.47,0.13,0.7c0.03,0.14,0.1,0.26,0.22,0.54
	c6.15,0,12.35,0,18.5,0c1.04,3.23-1.48,9.63-5.11,13.27c-3.37,3.37-6.47,4.72-13.19,5.66c-0.02,0.52-0.06,1.07-0.06,1.62
	c0,8.69,0.02,17.39-0.01,26.08c-0.02,8.81-1.69,17.28-5.5,25.25c-7.16,14.96-18.58,25.24-34.22,30.75
	c-7.07,2.49-14.39,3.52-21.86,3.07c-16.33-0.98-30.04-7.53-40.97-19.72c-6.97-7.77-11.41-16.86-13.54-27.06
	c-0.75-3.59-1.05-7.23-1.2-10.89C97.09,165.52,97.15,165.29,97.2,164.88z M185.13,113.07c-5.59-0.01-10.01,4.33-10.03,9.85
	c-0.02,5.6,4.43,10.06,10.02,10.04c5.41-0.02,9.88-4.48,9.92-9.89C195.08,117.58,190.62,113.08,185.13,113.07z"/>
<path class="st0" d="M151.79,160.95c-12.38,0-24.57,0-36.77,0c-11.22-13.19-10.35-35.44,2.92-47.79c1.13,1.13,2.28,2.25,3.41,3.38
	c9.8,9.8,19.6,19.61,29.42,29.39c0.72,0.72,1.07,1.42,1.05,2.48c-0.07,3.65-0.03,7.31-0.03,10.97
	C151.79,159.85,151.79,160.32,151.79,160.95z"/>
<path class="st0" d="M191.43,123.11c-0.05,3.5-2.91,6.31-6.41,6.28c-3.54-0.02-6.47-3.01-6.37-6.5c0.1-3.5,2.98-6.31,6.45-6.29
	C188.65,116.63,191.47,119.53,191.43,123.11z"/>
<g>
	<path class="st0" d="M133.75,284.25c-0.44,1.31-0.12,2.15-0.34,2.81c-0.4,1.2-1.73,0.82-1.99,1.59c-0.5,1.5,0,1.2-0.48,2.63
		c-0.18,0.54-1.97,0.94-2.37,2.13c-0.12,0.36-0.18,0.74-0.42,1.46c-0.2,0.6-0.54,0.82-1.02,0.66c-0.66-0.22-1.28-2.15-1.81-2.33
		c-0.72-0.24-1.27,0.64-1.55,1.47c-0.2,0.6-0.24,1.12-0.36,1.47c-0.1,0.3-0.28,0.44-0.58,0.34c-0.78-0.26-0.24-3.87-1.73-4.36
		c-0.96-0.32-1.28,0.44-1.87,0.24c-0.96-0.32-0.94-2.17-4.1-3.23c-1.14-0.38-1.89,0.9-2.03,1.32c-0.16,0.48,0.34,1.97,0.12,2.63
		c-0.2,0.6-0.56,0.88-1.33,0.62c-0.3-0.1-0.82-0.54-0.54-1.38c0.22-0.66,0.76-1.47,0.9-1.89c0.06-0.18,0.44-1.31-0.28-1.55
		c-0.24-0.08-0.46,0.18-0.88,0.04c-0.36-0.12-0.34-0.58-0.24-0.88c0.24-0.72,0.84-0.92,1.24-2.11c1.09-3.29,1.04-4.1,1.35-5.06
		c0.46-1.37,1.36-2.87,1.56-3.47c0.2-0.6,0.14-0.82-0.1-2.29c-0.08-0.36-0.1-0.7,0-1c0.38-1.14,1.71-2.95,2.09-4.08
		c0.92-2.75,2.39-4.78,3.21-7.23c0.28-0.84,0.2-2.19,0.28-2.43c0.68-2.03,2.07-3.43,2.17-3.73c0.46-1.38-1.47-2.55-1-3.99
		c0.74-2.21,0.56-2.27,0.88-3.23c0.42-1.26,1.16-2.07,2.71-1.55c0.24,0.08,1.16,0.52,1.33,0.58c0.84,0.28,2.33,0.18,2.63,0.28
		c0.66,0.22,1.33,1.38,1.97,1.65c0.66,0.22,2.01-0.06,2.61,0.14c1.24,0.48,1.73,1.38,3.01,1.93c3.21,1.33,4.7,5.42,3.97,10.82
		c-0.14,0.42-0.24,0.92-0.36,1.28c-0.96,2.87-1.75,1.67-2.05,2.57c-0.66,1.97,0.06,5.6-0.44,7.09c-1.39,4.18-2.49,6.27-2.67,6.81
		C134.92,281.92,134.28,282.64,133.75,284.25z M129.5,275.87c0.86-2.57,2.07-5.22,2.99-7.97c0.38-1.14,0.4-1.99-0.5-2.29
		c-1.02-0.34-1.63,1.91-2.53,1.61c-0.3-0.1-0.38-0.46-0.16-1.12c0.58-1.73,1.49-3.29,1.59-3.59c0.38-1.14,0.64-1.71,0.82-2.25
		c0.26-0.78,0.36-1.28-0.48-1.55c-0.3-0.1-0.48,0.04-0.64,0.52c-0.2,0.6-0.24,1.91-0.4,2.39c-0.1,0.3-0.26,0.38-0.44,0.32
		c-0.96-0.32-1.12-1.24-0.78-2.25c0.14-0.42,0.78-1.33,0.92-1.75c0.24-0.72,0.04-1.71-0.38-1.85c-0.48-0.16-0.96,1.08-1.08,1.43
		c-0.02,0.06-0.28,1.83-0.38,2.13c-0.26,0.78-1.01,1.25-1.41,2.45c-0.58,1.73,0.14,3.77-0.3,5.08c-0.9,2.69-1.93,2.81-2.89,5.68
		c-0.36,1.08-0.56,1.87-0.52,2.95c0.06,0.82,0.44,1.67,0.14,2.57c-0.12,0.36-0.3,0.5-0.6,0.4c-0.06-0.02-0.66-0.42-0.78-0.46
		c-0.54-0.18-0.88,0.24-0.98,0.54c-0.24,0.72-0.98,4.72,0.64,5.26c0.6,0.2,1.12,0.44,1.65,0.62c1.79,0.6,3.41,0.34,5.6-6.24l0.5-1.5
		L129.5,275.87z"/>
	<path class="st0" d="M155.09,255.15c1.76,0.15,2.64-0.6,3.71-0.51c1.13,0.09,0.95,0.71,1.29,2.7l0.39,2.12
		c0.12,0.83,0.23,1.79,0.24,2.48c-0.05,0.57-0.4,1.74-0.46,2.43c-0.13,1.57-0.13,3.15,0,4.62c-0.02,0.25,1.47,6.7,1.13,10.71
		c-0.29,3.52,0.99,4.82,0.78,7.4c-0.08,0.94-0.1,2.71,0.44,5.35c0.87,4.75,1,5.46,0.85,7.28c-0.14,1.76-0.78,2.53-1.78,2.44
		c-0.75-0.06-0.97-0.46-0.92-1.15c0.04-0.44,0.21-0.99,0.24-1.37c0.05-0.57-0.12-0.77-0.5-0.8c-1.07-0.09-0.67,2.73-1.61,2.65
		c-0.88-0.07-0.58-2.89-1.27-2.95c-0.26,0.04-0.41,0.34-0.47,1.1c-0.04,0.44,0.07,1.4,0.02,2.09c-0.07,0.82-0.47,1.16-0.85,1.13
		c-1.19-0.1-0.85-3.42-0.74-5.56c0.06-1.45-0.49-3.2-0.34-5.09c0.17-2.01-0.02-3.54-0.96-3.62c-0.88-0.07-0.92,2.77-1.99,2.68
		c-0.82-0.07-1.76-2.42-2.26-2.46c-0.25-0.02-0.46,0.28-0.5,0.72c-0.07,0.88,0.3,0.97,0.23,1.85c-0.04,0.5-1.32,0.71-1.39,1.53
		c-0.04,0.5,0.33,1.36,0.27,2.11c-0.18,2.2-2.4-0.07-2.72,3.82c-0.08,1-0.17,2.01-1.04,1.94c-1.63-0.14-0.36-3.25-1.62-3.36
		c-0.5-0.04-1.26,1.47-1.76,1.43c-0.44-0.04-0.67-0.31-0.63-0.81c0.09-1.13,0.56-1.47,0.81-4.48c0.13-1.57,0.22-3.46,0.57-4.57
		l0.79-2.72l1.85-5.6c0.25-0.68,0.35-1.17,0.38-1.49c0.03-0.38-0.27-0.53-0.23-1.09c0.05-0.63,0.38-1.55,0.86-2.71
		c0.97-2.51,0.58-3.24,2.31-9.61c1.1-4.08,1.44-12.02,3.64-11.84C152.58,254.18,153.84,255.04,155.09,255.15z M151.34,278.23
		c-0.07,0.88,0.27,1.29,0.3,1.73c-0.02,0.25-0.49,0.59-0.57,1.53c-0.04,0.5,0.63,0.81,1.88,0.92c1.45,0.12,1.91-0.22,1.95-0.66
		s-0.16-1.15-0.08-2.03c0.35-4.21,0.13-4.67-0.12-4.69c-0.63-0.05-0.43,2.18-1.25,2.11c-0.88-0.07,0.07-3.09-0.62-3.15
		C152.08,273.92,151.47,276.72,151.34,278.23z"/>
	<path class="st0" d="M194.42,284.31c-0.45,1.16-0.25,2.79-0.05,3.97c0.73,4.48,0.97,3.61,1.21,5.04c0.11,0.68,0.09,1.33-0.67,2.92
		c-0.15,0.28-0.22,0.61-0.19,0.8c0.08,0.5,0.78,2.04,0.89,2.73c0.12,0.75-0.46,1.1-0.96,1.18c-0.62,0.1-1.06-0.27-1.19-1.02
		c-0.05-0.31-0.1-1-0.14-1.25c-0.36-2.18-0.9-2.79-1.34-2.72c-0.75,0.12-0.45,1.92-0.95,2c-0.87,0.14-1.75-2.9-2.78-4.14
		c-1.17-1.28-1.96-1.47-2.25-3.21c-0.26-1.55,0.22-2.14-0.06-3.88c-0.11-0.68-0.4-0.89-0.9-0.81c-0.99,0.16-1.23,1.03-0.95,2.77
		c0.31,1.93-0.5,2.83-0.93,2.9c-0.31,0.05-0.57-0.35-0.71-1.22c-0.32-1.93-0.21-3.99-0.61-6.47c-0.59-3.61-2.22-8.13-3.53-7.91
		c-0.5,0.08-0.87,0.91-0.68,2.09c0.17,1.06,0.74,2.18,0.9,3.17c0.12,0.75,0,1.53,0.16,2.53c0.1,0.62,0.8,2.17,1.02,3.47
		c0.14,0.87-0.66,1.83-0.52,2.7c0.14,0.87,1.02,2.32,1.16,3.19c0.32,1.93,0.7,1.93,0.84,2.8c0.2,1.24-0.79,2.56-0.74,2.87
		c0.15,0.93,0.4,1.66,0.47,2.09c0.1,0.62-0.1,0.97-0.66,1.06c-0.37,0.06-0.77-0.38-0.97-1.25c-0.62-2.64-2.59-2.58-3.03-2.5
		c-0.44,0.07-1.09,0.37-0.98,1.05c0.06,0.37,0.76,1.53,0.85,2.09c0.26,1.56-0.33,1.91-0.51,1.94c-0.62,0.1-1.83-2.19-2.06-3.62
		c-0.24-1.49-0.22-2.13-0.31-2.69c-0.12-0.75-0.36-1.41-0.48-2.16c-0.29-1.8,0.45-3.52,0.12-5.51c-0.09-0.56-0.91-2.47-1.14-3.84
		c-0.29-1.8,1.13-3.63,0.8-5.62c-0.26-1.55-1.73-3.93-1.82-4.49c-0.13-0.81,0.41-4.15,0.17-5.58c-0.23-1.43-1.5-2.5-1.75-4.06
		c-0.21-1.3,0.53-3.41,0.46-3.84c-0.2-1.24-0.85-2.86-1.03-3.92c-0.27-1.62,0.76-3.19,3.87-3.7c2.17-0.36,3.26,0.04,3.45,1.16
		c0.14,0.87,0,1.59,0.14,2.4c0.44,2.67,1.57,2.55,4.12,6.03c1.23,1.65,1.61,5.54,2.03,6.56c0.12,0.36,1.24,1.33,1.43,2.51
		c0.07,0.43-0.12,0.85-0.06,1.16c0.29,1.8,0.62,2.64,1.55,2.49c0.5-0.08,0.83-0.39,0.72-1.08c-0.19-1.18,0.19-1.95-0.03-3.31
		c-0.07-0.44-1.31-2.92-1.7-5.28c-0.59-3.61-0.17-5.33-0.4-6.76c-0.21-1.31-1.69-3.3-1.87-4.42c-0.32-1.99,2.34-3.26,4.7-3.64
		c2.18-0.36,3.65,1.25,4.07,3.8c0.09,0.56-0.38,3.13-0.26,3.87c0.38,2.3,2.39,4.08,2.79,6.5c0.23,1.43-0.64,2.34-1.31,3.34
		c-0.39,0.7-0.46,2.63-0.34,3.38c0.12,0.75,1.62,4.01,1.79,5.07c0.09,0.56,0.03,0.95,0.13,1.57c0.03,0.19,1.37,2.14,1.49,2.88
		C194.99,283.07,194.71,283.69,194.42,284.31z"/>
	<path class="st0" d="M226.88,282.34c0.16,0.34,1.3,0.73,1.63,1.47c0.39,0.86,0,1.38-0.34,1.54c-1.21,0.55-2.49-1.99-2.89-1.8
		c-0.23,0.1,0.04,1.16-0.25,1.29c-0.52,0.23-0.99-0.04-1.3-0.73c-0.34-0.75-0.5-1.57-0.87-2.37c-0.13-0.29-0.32-0.41-0.61-0.28
		c-0.4,0.18-0.42,0.75-0.01,1.66c0.37,0.8,0.98,1.56,1.06,1.73c0.88,1.95-0.03,2.99-0.78,3.33c-0.34,0.16-0.85,0.11-1.17-0.3
		c-1.18-1.54-2.12-1.46-2.69-1.2c-0.4,0.18-1.96,1.17-1.52,2.14c1.04,2.3,2.11,4.37,1.2,4.78c-0.57,0.26-0.99,0.1-1.33-0.64
		c-0.08-0.17-0.31-0.83-0.41-1.06c-1.4-3.1-2.23-3.55-2.75-3.32c-0.34,0.16-0.32,0.97-0.78,1.18c-0.52,0.23-1.33,0.12-1.69-0.68
		c-0.29-0.63-0.27-1.82-0.37-2.05c-0.08-0.17-0.35-0.32-0.64-0.19c-0.4,0.18-0.01,1.81-0.65,2.09c-0.29,0.13-0.54,0.04-0.69-0.31
		c-0.21-0.46-0.36-1.71-0.9-2.91c-0.41-0.92-1.86-2.27-2.25-3.13c-0.21-0.46-0.15-1.11-0.36-1.57c-0.31-0.69-1.3-2.11-1.38-2.28
		c-0.21-0.46-0.52-1.29-0.7-1.69c-0.83-1.84-2.05-1.63-2.65-2.95c-0.47-1.03,0.11-2.2-0.48-3.52c-0.21-0.46-0.76-1.52-0.84-1.7
		c-0.31-0.69-0.68-2.11-0.89-2.57c-0.36-0.8-0.64-0.81-1.06-1.73c-0.23-0.52-0.47-2.42-0.86-3.28l-1.04-2.3
		c-1.6-4.6-1.95-5.69,1.02-8.76c1.94-1.98,1.8-2.89,4.62-4.16c5.91-2.68,11.13,0.91,13.6,6.36c0.23,0.52,0.59,2.84,1.58,5.02
		c0.29,0.63,1.05,2.01,1.49,2.99c0.29,0.63,0.46,1.17-0.28,1.51c-0.46,0.21-0.91-0.49-1.2-1.12c-0.16-0.34-0.24-1-0.71-2.03
		c-0.21-0.46-0.62-0.62-1.14-0.38c-1.04,0.47,0.6,2.7-0.15,3.04c-0.92,0.42-1.25,0.15-1.38-0.14c-0.1-0.23-0.29-1.25-0.39-1.48
		c-0.78-1.72-3-0.37-3.91-2.38c-0.29-0.63-0.45-2.22-0.71-2.79c-1.14-2.53-2.43-2.15-2.77-2c-0.57,0.26-0.76,0.62-0.58,1.02
		c0.18,0.4,1.07,1.45,1.33,2.03c0.49,1.09,0.73,2.37,0.15,2.63c-0.34,0.15-0.88,0.19-1.11-0.33c-0.26-0.57-0.23-1.42-0.46-1.94
		c-0.29-0.63-0.79-0.68-0.91-0.63c-0.8,0.36-0.5,2.58,0,3.67c1.12,2.47,1.76,2.66,2.23,3.7c0.52,1.15-0.19,2.64,0.31,3.73
		c0.13,0.29,2.29,3.53,3.3,5.77c0.88,1.95,1.03,3.34,1.24,3.8c0.2,0.6,0.83,1.21,1.58,2.12c1.18,1.54,1.84,3.45,4.08,2.44
		c1.32-0.6,1.73-2.58,0.98-4.25c-0.29-0.63-1.29-1.49-1.5-1.95c-0.29-0.63-0.23-2.66-0.47-3.18c-0.52-1.15-1.96-0.98-2.19-0.87
		c-0.29,0.13-0.73,0.54-0.57,0.88c0.42,0.92,1.12,1.57,1.54,2.49c0.31,0.69,0.21,1.22-0.25,1.43c-0.52,0.24-0.9,0-1.21-0.69
		c-0.1-0.23-0.41-1.06-0.54-1.35c-0.52-1.15-1.77-1.76-2.44-3.25c-0.86-1.89-0.74-3.61,0.81-4.31c0.29-0.13,0.77-0.28,0.95-0.36
		c0.29-0.13,1.51-1.1,2.03-1.33c0.92-0.42,3.07,0.06,3.99-0.35c1.61-0.73,1.89-0.72,2.38,0.37c0.42,0.92,0.66,2.68,1.02,3.48
		c0.31,0.69,1.82,2.64,2.23,3.55c0.6,1.32,1.26,3.86,1.86,5.18c0.23,0.52,1.43,1.77,1.79,2.58
		C227.37,279.91,226.51,281.54,226.88,282.34z"/>
	<path class="st0" d="M251.08,262.98c0.19,0.25,0.75,0.78,1.32,1.53c0.46,0.6,0.4,1.04-0.11,1.42c-0.35,0.27-2.29,0.95-2.89,1.4
		c-0.6,0.46-0.71,1.25-0.25,1.85c0.8,0.74,1.39,0.69,2.38,1.99c0.3,0.4,0.37,0.59-0.08,0.93c-0.71,0.62-4.12-2.72-5.03-2.04
		c-0.75,0.57-0.53,1.91-0.26,2.26c0.3,0.4,0.83,0.47,1.1,0.82c0.72,0.95,0.54,1.33,0.13,1.64c-1.55,1.18-3.62-2.16-4.47-1.51
		c-0.15,0.12,0.07,1.13-0.38,1.48c-0.35,0.27-1.68,0.09-2.03,0.35c-0.2,0.15-0.37,0.76-0.57,0.91c-0.9,0.69-1.97-1.35-2.38-1.67
		l-0.72-0.95c-0.19-0.25-0.63-0.94-0.9-1.29l-0.84-1.1c-1.22-1.61-3.61-5.48-4.79-7.04c-0.91-1.2-1.56-3.4-1.75-3.66
		c-0.34-0.45-0.73-0.55-1.29-0.13c-0.2,0.15-0.39,0.53-0.59,0.68c-0.4,0.3-0.87-0.21-1.1-0.51c-0.19-0.25-0.38-0.5-0.52-1.11
		c-0.2-1.51-1.24-3.09-2.08-4.2c-1.29-1.71-1.6-3.45-2.55-4.71c-0.27-0.35-1.8-1.33-2.33-2.03c-0.38-0.5-0.89-1.38-1.23-1.83
		c-0.3-0.4-1.2-1.06-1.58-1.56c-0.19-0.25-0.34-0.77-0.54-1.02c-0.27-0.35-1.22-0.57-1.53-0.97c-0.61-0.8-0.07-1.76,1.03-2.6
		c0.2-0.15,0.69-0.45,1.04-0.71c0.9-0.68,0.76-1.29,1.51-1.86c0.45-0.34,1.29-0.27,1.65-0.54s0.27-0.68,0.78-1.06
		c0.7-0.53,2.21-0.42,2.97-0.99c0.5-0.38,0.58-1.31,1.29-1.85c0.5-0.38,0.89-0.28,1.24-0.55c0.35-0.27,0.29-0.77,1.04-1.34
		c0.35-0.27,1.1,0.19,2.51,2.05c0.99,1.3,5.2,5.39,6.57,7.19c0.46,0.6,0.42,1.18-0.28,1.71c-0.45,0.34-0.89,0.28-1.27-0.22
		c-0.3-0.4-1.23-1.83-1.35-1.98c-1.33-1.76-2.63-3.15-2.93-2.92c-0.9,0.69,2.46,3.35,1.46,4.11c-0.3,0.23-0.62,0.23-0.86,0.02
		c-1.13-0.96-1.53-1.29-1.88-1.43c-0.99,0.04-1.94,0.05-2.54,0.51c-1.1,0.84-0.25,2.17-0.8,2.59c-0.3,0.23-0.53,0.24-0.73,0.39
		c-1.1,0.84-0.48,2.18,0.7,3.74c2.25,2.96,5.45,3.22,6.2,2.65c0.15-0.11,1.44-1.65,1.64-1.8c0.64-0.72,1.74-1.56,1.99-1.75
		c0.5-0.38,1.27-0.1,1.81,0.61c0.27,0.35,0.5,1.6,0.88,2.1c0.8,1.05,3.74,2.94,4.31,3.69c0.69,0.9,0.89,2.73,0.44,3.07
		c-1,0.76-2.35-2.57-3.6-1.62c-1.05,0.8,1.21,2.01,0.36,2.66c-0.6,0.46-2.06-1.05-2.61-0.63c-0.35,0.27-0.85,0.33-1.21,0.6
		c-0.45,0.34-0.58,0.6-0.27,1c0.3,0.4,1.04,0.64,2.79,2.94c0.57,0.75,0.9,2.64,1.32,3.19c0.61,0.8,2.11,1.32,4.27-0.32
		c0.3-0.23,0.66-0.58,1.11-0.93c0.7-0.53,2.31-1.12,2.96-1.62c0.2-0.15,0.41-0.39,0.66-0.58c0.75-0.57,2.16-0.38,2.74,0.37
		C250.58,261.38,250.74,262.53,251.08,262.98z"/>
	<path class="st0" d="M274.22,245.01c0.19,0.16,0.84,0.37,1.61,1.02c1.59,1.34,2.71,2.94,2.27,3.47c-0.29,0.34-0.65,0.19-1.14-0.21
		c-0.77-0.65-1.37-1.31-1.66-1.55c-1.01-0.85-3.53-2.55-3.94-2.07c-0.69,0.82,0.04,1.43-0.37,1.91c-0.16,0.19-0.46,0.35-0.75,0.11
		c-0.24-0.2-0.91-1.26-1.64-1.87c-0.82-0.69-1.75-1.14-2.95-1.49c-2.61-0.71-4.42-1.49-5.19-2.14c-0.43-0.36-0.64-0.7-1.03-1.03
		c-1.11-0.93-2.79-0.7-3.56-1.35c-0.72-0.61-0.71-0.92-1.33-1.45c-0.34-0.28-0.65-0.3-0.89-0.01c-0.41,0.48-0.66,1.17,0.45,2.11
		c0.77,0.65,1.04,0.62,1.33,0.87c0.24,0.2,0.13,0.44,0.05,0.53c-0.62,0.63-2.21-1.28-2.74-0.66c-0.16,0.19,0.05,0.53,0.63,1.02
		c0.43,0.36,3.05,2.15,3.34,2.39c0.58,0.49,2.85,2.97,4.59,4.43c1.25,1.05,3,1.62,4.45,2.83c1.74,1.46,2.23,1.95,1.82,2.43
		c-0.89,1.06-2.38-1.18-3.07-0.36c-0.49,0.58-0.24,1.85,0.44,2.42c0.72,0.61,2.12,1.29,2.32,1.45c0.29,0.24,0.36,0.55,0,0.98
		c-0.4,0.48-0.94,0.04-1.37-0.33c-0.19-0.16-0.83-0.78-1.16-1.06c-0.72-0.61-1.21-1.1-2.91-0.55c-1.26,0.42-1.74,0.02-2.03-0.23
		c-0.34-0.28-1.34-2.52-1.87-2.97c-1.64-1.38-4.83-2.58-5.5-3.14c-1.93-1.62-3.66-4.56-4.34-5.12c-1.4-1.17-5.33-3.16-6.19-3.89
		c-1.45-1.22-1.96-3.45-3.5-4.75c-1.35-1.13-3.54-1.66-4.15-2.01c-0.72-0.52-2.55-1.08-3.13-1.56c-0.63-0.53-1.49-1.75-2.22-2.36
		c-0.19-0.16-0.84-0.37-1.18-0.66c-0.48-0.41-0.33-1.18,0-1.56c0.45-0.53,2.26-1.23,2.63-1.66c0.45-0.53,1.02-1.7,1.42-2.18
		c0.93-1.11,2.55-2.55,3.48-3.66c-0.04,0.05-0.04,0.05-0.04,0.05c6.33-5.29,9.16-3.66,10.43-2.92c1.55,0.89,2.78,1.59,4.22,2.81
		c0.77,0.65,1.87,2.48,2.64,3.12c1.16,0.97,2.99,3,4.15,3.98c0.63,0.53,1.04,0.62,1.23,0.79c0.58,0.49,0.7,1.33,0.33,1.76
		c-0.36,0.43-1.78,0.06-2.15,0.5c-0.12,0.14-0.06,0.36,0.04,0.44c0.68,0.57,1.91,0.37,2.58,0.94c0.39,0.32,0.52,0.85,1.05,1.29
		c0.39,0.32,0.85,0.55,1.45,0.72c1.65,0.48,1.88,0.51,2.67,0.84c1.25,0.56,3.21,2.54,4.27,2.85c1.02,0.36,4.1,0.4,5.12,1.25
		C275.19,241.22,272.77,243.8,274.22,245.01z M244.82,227.81c-0.68-0.57-0.75-0.87-1.08-1.16c-1.3-1.09-2.84-1.32-3.94-0.01
		c-0.49,0.58,0.13,1.51,0.86,2.12c0.19,0.16,0.72,0.52,0.86,0.64c0.39,0.32,0.45,0.54,0.29,0.73c-0.61,0.72-2.05-0.98-2.62-0.31
		c-0.12,0.15-0.01,0.4,0.42,0.77c0.43,0.36,3.56,2.42,4,2.78c0.58,0.49,0.71,1.01,1.24,1.46c0.34,0.28,0.83,0.29,1.11-0.05
		c0.32-0.39,0.29-0.74,0.5-0.98c0.4-0.48,2.13,0.31,2.78-0.47c0.73-0.87-0.18-2.53-1.96-4.03
		C245.68,227.96,245.26,228.17,244.82,227.81z"/>
	<path class="st0" d="M253.6,196.28c2.14-0.5,4.11-0.24,8.13,1.72c5.78,2.81,8.42,5.29,12.22,7.14l2.1,1.02
		c7.47,3.64,5.29,4.54,9.42,6.55c4.08,1.99,6.18,3.85,5.79,4.64c-0.36,0.74-2.45-0.14-2.76,0.48c-0.75,1.53,5.18,2.59,4.41,4.18
		c-0.19,0.4-0.53,0.79-2.34,0.05c-1.84-0.69-2.6-1.13-2.94-0.45c-0.3,0.62,0.38,1.09,0.16,1.55c-0.22,0.45-1.54,0.3-1.96,1.15
		c-0.55,1.13,2.7,2.51,2.26,3.42c-0.81,1.22-2.17,0.28-5.21-0.09c-3.24-0.39-3.78-0.02-3.97,0.38c-0.33,0.68,0.32,1.21,0.95,1.51
		c0.39,0.19,0.71,0.28,0.88,0.36c0.45,0.22,0.49,0.59,0.29,0.98c-0.36,0.74-5.67-0.73-8.11-1.92c-1.93-0.94-4.8-3.53-6.1-4.16
		c-1.47-0.72-4.85-0.26-7.28-1.45c-1.42-0.69-5.91-4.56-7.21-5.19c-0.85-0.42-1.44-0.21-2.68-0.82c-1.3-0.63-3.32-2.67-3.67-2.98
		c-3.1-2.56-2.18-9.19-1.77-10.04C245.82,201.04,250.57,197.05,253.6,196.28z M254.06,210.31c1.58,0.77,3.16,0.98,4.41,1.59
		c2.38,1.16,2.72,1.61,3.51,1.99c1.25,0.61,4.97,1.44,5.94,1.91c3.34,1.63,4.6,3.64,6.92,4.77c0.4,0.19,0.88,0.22,1.52,0.18
		c3.01,0,3.35,0.16,3.91-0.97c0.63-1.3,0.11-2.82-1.13-3.42c-0.28-0.14-1.21-0.38-1.61-0.57c-0.23-0.11-0.88-0.5-1.84-0.97
		s-3.06-1.35-3.85-1.74c-1.08-0.52-1.42-0.69-2.67-1.86c-0.57-0.56-1.2-1-1.88-1.33c-2.26-1.1-4.61-1.33-8.06-3.02
		c-1.47-0.72-2.36-1.78-3.66-2.41c-0.79-0.39-1.78-0.52-2.22,0.39c-0.3,0.62,2.64,2.34,2.31,3.02c-0.28,0.57-2.51-0.31-2.95,0.59
		C252.38,209.14,253.38,209.98,254.06,210.31z"/>
	<path class="st0" d="M255.46,172.69c0.19-0.93-0.26-1.27-0.12-1.95c0.19-0.93,1.93-0.96,5.2-0.3c2.65,0.54,4.34,3,7.18,3.57
		c0.93,0.19,2.2,0.25,3.06,0.43c1.17,0.24,1.81,0.56,2.93,0.78c1.3,0.26,4.68,0.05,7.03,0.52c1.23,0.25,1.98,0.72,3.52,1.03
		c1.05,0.21,2.3,0.4,3.47,0.64c3.52,0.71,3.75,0.82,5.51,2.01c0.33,0.26,1.36,1.88,2.96,4.77c0.6,1.15,1.44,1.77,2.43,1.97
		c1.23,0.25,1.8-0.02,2.42,0.1c0.87,0.17,1.07,0.73,0.94,1.41c-0.19,0.93-0.72,1.01-1.52,0.85c-0.74-0.15-1.51-0.5-1.69-0.54
		c-0.49-0.1-1.21,0.27-1.35,0.95c-0.06,0.63,0.79,0.87,0.65,1.54c-0.09,0.43-1.32,1.15-1.39,1.46c-0.09,0.43,0.1,0.79,1.03,0.98
		c0.92,0.19,3.17-0.13,5.77,0.39c0.68,0.14,1.71,0.73,1.47,1.97c-0.18,0.87-0.76,1.2-1.87,0.97c-2.29-0.46-3.94-1.18-4.8-1.36
		c-0.62-0.12-2.46-0.56-5.09,1.03c-4.24,2.55-8.64,3.01-12.65,2.2c-1.48-0.3-2.88-0.71-4.48-1.03c-1.85-0.37-4.06-0.56-6.16-0.99
		c-3.46-0.7-6.47-2.33-10.67-3.18c-0.87-0.17-1.61-0.32-2.17-0.38c-2.26-0.26-2.68,0.87-4.23,0.56c-1.85-0.38-2.14-3.71-1.88-5.01
		c0.52-2.59,1.59-3.73,5.96-3.42c3.04,0.23,5.2,0.34,7.73,0.85c5.74,1.16,11.41,3.65,13.41,4.25c2.11,0.68,4.36,1.33,5.22,1.5
		c4.32,0.87,6.26-2.33,6.44-3.26c0.3-1.48-1.22-2.88-7.02-4.05c-5.68-1.15-8.89-1.15-12.17-1.81c-2.41-0.49-4.64-1.51-7.3-2.05
		c-1.11-0.22-5.92,0.03-7.77-0.35c-2.16-0.44-1.8-2.23-1.6-3.21C254.14,175.12,255.29,173.55,255.46,172.69z"/>
	<path class="st0" d="M288.63,146.84c0.76-0.03,1.45,0.06,2.48,0.46c3.27,1.18,7.17,1.08,8.68,1.02c0.31-0.01,1.25-0.12,2.14-0.15
		c0.44-0.02,0.95,0.15,0.98,0.78c0.03,0.69-0.4,0.9-0.91,0.92c-3.08,0.13-3.75,0.85-3.67,2.74c0.07,1.7,1.55,2.27,6.64,2.05
		c0.95-0.04,1.95-0.15,2.83-0.18c0.88-0.04,1.39,0,1.42,0.7c0.1,2.33-9.37,0.59-9.27,2.86c0.03,0.69,0.48,1.05,1.49,1.01
		c0.5-0.02,1.63-0.26,2.07-0.28c0.44-0.02,0.7,0.16,0.72,0.6c0.04,1.01-0.52,1.22-1.08,1.24c-3.59,0.15-3.24,0.9-4.76,2.22
		c-0.61,0.59-1.73,0.77-1.7,1.52c0.02,0.57,1.66,0.56,1.69,1.19c0.08,1.89-5.12,2.74-8.01,2.86c-2.58,0.11-4.12-2.09-4.21-4.11
		c-0.06-1.38,0.54-2.23,2.15-2.8c3.42-1.16,4.22-2.96,4.16-4.4c-0.08-1.83-2.12-2.49-4.14-2.41c-0.88,0.04-1.56,0.51-2.16,1.23
		c-2.76,3.33-3.79,2.81-5.99,4.48c-1.1,0.8-1.84,2.79-4.11,4.08c-1.35,0.81-4.25,0.94-4.2,1.95c0.04,0.88,2.37,0.91,2.41,1.79
		c0.03,0.76-1.4,1.13-2.72,1.19c-0.95,0.04-1.79-0.49-3.99-0.4c-1.26,0.05-3.59,0.09-5.18-0.16c-1.46-0.25-4.36-3.09-5.17-4.45
		c-0.14-0.37-2.62-5.31-2.65-5.94c0.06-0.13,0.05-0.25,0.05-0.38c0.1-2.08,0.84-3.88,2.1-5.45c1.38-1.64,5.05-4.25,7.76-4.37
		c1.51-0.06,2.98,0.38,4.17,0.33c2.27-0.1,3.97-0.04,4,0.52c0.08,1.95-6.58,1.04-6.51,2.55c0.09,2.01,3.63,0.98,3.68,2.05
		c0.1,2.27-6.08,0.95-6,2.71c0.02,0.5,0.53,0.61,1.16,0.58c0.25-0.01,0.62-0.09,0.88-0.1c0.76-0.03,1.27,0.2,1.3,0.95
		c0.02,0.44-0.34,0.96-0.9,0.98c-1.01,0.04-1.27-0.14-2.34-0.09c-1.01,0.04-1.18,0.49-1.16,0.93c0.04,1.01,2.64,1.34,4.47,1.26
		c3.15-0.13,6.05-3.1,7.91-6.71c1.05-2,3.36-2.67,3.9-3.19c1.21-1.12,1.5-3.34,4.39-3.47c0.94-0.04,1.76-0.08,2.07-0.15
		C286.49,147.12,287.68,146.88,288.63,146.84z"/>
	<path class="st0" d="M256.97,139.31c1.3-0.25,7.2,0.74,8.93,0.41c2.04-0.39,3.35-1.92,4.22-2.09c1.3-0.25,2.19,0.35,2.26,0.72
		c0.1,0.49-0.77,0.66-0.71,0.97c0.04,0.19,1.06,0.18,2.05-0.01c1.17-0.22,2.17-1.7,2.92-1.84c2.29-0.44,3.58,0.92,6.24,0.41
		c1.36-0.26,2.39,1.08,4.24,0.73c0.5-0.09,0.94,0.21,1.01,0.58c0.13,0.68-0.06,1.36-1.05,1.55c-0.31,0.06-1.57,0.17-1.76,0.21
		c-2.6,0.5-4.7,2.57-7.43,3.09c-1.05,0.2-2.67,0.13-3.91,0.36c-0.62,0.12-2.32,0.64-3.24,0.81c-1.92,0.37-2.8-0.23-4.17,0.03
		c-2.16,0.42-0.6,2.23-2.64,2.62c-0.68,0.13-1.04-0.06-2.21,0.17c-0.68,0.13-2.99,1.47-3.86,1.64c-2.35,0.45-3.95-1.87-4.4-4.22
		C252.97,142.89,253.88,139.9,256.97,139.31z M297.7,133.94c0.23,1.18-1.54,1.64-1.37,2.57c0.15,0.8,0.67,1.15,1.47,1
		c0.43-0.08,1.39-0.46,1.7-0.52c0.43-0.08,0.59,0.08,0.64,0.33c0.21,1.11-2.82,0.99-2.62,2.04c0.04,0.19,0.55,0.21,1.05,0.12
		c0.19-0.04,1.02-0.39,3.18-0.8c0.8-0.15,1.14-0.09,1.18,0.16c0.12,0.62-0.62,1.14-1.23,1.26c-0.5,0.09-2.18,0.03-2.79,0.15
		c-2.54,0.49-5.05,1.74-6.85,2.08c-0.99,0.19-2.93-0.21-3.27-2c-0.06-0.31,0.22-2.22,0-3.34c-0.06-0.31-0.28-0.78-0.37-1.28
		c-0.14-0.74,0.56-1.45,1.79-1.69c0.5-0.1,1.66-0.06,5.42-0.52C296.94,133.32,297.59,133.39,297.7,133.94z"/>
</g>
<g>
	<path class="st0" d="M57.02,212.22l11.33-4.97l3.79-1.72l3.11,7.1l-3.83,1.62l-29.7,13.03L37.93,229l-4.03-9.19
		c-3.55-8.09,0.62-12.35,6.78-15.05l0.1-0.04c3.81-1.67,7.53-2.12,10.68-0.2l14.99-11.93l3.25,7.41l-13.53,10.29L57.02,212.22z
		 M51.23,214.76l-0.57-1.3c-1.42-3.24-4.04-2.83-6.86-1.6l-0.1,0.05c-2.82,1.24-4.87,2.95-3.52,6.03l0.62,1.41L51.23,214.76z"/>
	<path class="st0" d="M22.42,178.43l4.1-0.7l25.84-4.8c6.95-1.29,11.56,1.97,12.75,8.36c1.19,6.39-1.95,11.03-8.9,12.32l-25.84,4.8
		l-4.08,0.82l-1.41-7.57l4.1-0.71l25-4.65c3.08-0.57,4.63-1.61,4.23-3.75c-0.4-2.13-2.22-2.6-5.31-2.03l-25,4.65L23.82,186
		L22.42,178.43z"/>
	<path class="st0" d="M62.36,168.31l-4.15-0.3l-32.41-1.43l-4.16-0.13l0.45-10.14c0.31-6.95,4.5-10.3,10.88-10.02l0.11,0.01
		c4.21,0.19,6.94,1.85,8.52,4.71l0.23,0.01c1.68-3.18,4.78-4.98,9.34-4.78l0.11,0c7.86,0.35,11.84,4.52,11.52,11.75L62.36,168.31z
		 M38.27,159.54l0.08-1.71c0.12-2.62-1.94-3.8-4.85-3.92l-0.29-0.01c-2.79-0.12-4.55,1-4.66,3.39l-0.08,1.82L38.27,159.54z
		 M56.3,158.39c0.14-3.08-1.87-4.13-5.52-4.29l-0.29-0.01c-3.47-0.15-5.46,0.96-5.59,3.92l-0.08,1.82l11.39,0.5L56.3,158.39z"/>
	<path class="st0" d="M63.66,145.52l-3.98-1.22l-31.26-8.65l-4.03-1.06l2.71-9.78c1.86-6.7,6.7-9.03,12.85-7.32l0.11,0.03
		c4.07,1.12,6.35,3.35,7.25,6.5l0.22,0.06c2.35-2.72,5.78-3.78,10.17-2.57l0.11,0.03c7.58,2.1,10.53,7.05,8.59,14.03L63.66,145.52z
		 M42.15,131.58l0.46-1.65c0.7-2.53-1.04-4.13-3.85-4.91l-0.27-0.08c-2.69-0.75-4.66-0.05-5.3,2.26l-0.49,1.76L42.15,131.58z
		 M59.96,134.5c0.82-2.97-0.9-4.45-4.41-5.42l-0.28-0.08c-3.35-0.93-5.54-0.29-6.33,2.57l-0.49,1.76l10.99,3.04L59.96,134.5z"/>
	<path class="st0" d="M57.98,108.45l9.96,5.19l4.61-8.85l5.87,3.05l-8.16,15.68l-3.67-1.97l-28.77-14.98l-3.72-1.87l8.05-15.47
		l5.86,3.05l-4.5,8.65l8.44,4.4l3.63-6.98l6.02,3.13L57.98,108.45z"/>
	<path class="st0" d="M71.42,89.93l9.55,7.86l3.25,2.6l-4.92,5.98l-3.18-2.69L51.07,83.08l-3.25-2.6l6.38-7.75
		c5.61-6.82,11.3-5.02,16.49-0.75l0.09,0.07c3.21,2.64,5.3,5.76,5.01,9.43l17.42,7.99l-5.14,6.25l-15.3-7.42L71.42,89.93z
		 M66.53,85.91l0.9-1.1c2.25-2.73,0.7-4.89-1.68-6.84l-0.09-0.07c-2.38-1.96-4.83-3.01-6.96-0.42l-0.98,1.19L66.53,85.91z"/>
	<path class="st0" d="M92.99,42.45c2.91,0.46,5.32,2.14,8.95,7.61l7.35,11.07c3.63,5.46,4.24,8.34,3.54,11.2
		c-0.61,2.39-2.11,4.34-4.49,5.92l-9.12,6.05l-2.25-3.5L79.03,53.77l-2.35-3.44l9.12-6.05C88.17,42.71,90.56,42.08,92.99,42.45z
		 M86.68,51.5l15.36,23.13l1.71-1.14c3.09-2.05,0.78-5.52-0.25-7.08l-8.67-13.06c-1.07-1.61-3.34-5.03-6.43-2.98L86.68,51.5z"/>
	<path class="st0" d="M124.58,26.02l1.39,3.92l9.1,24.65c2.45,6.63,0.01,11.72-6.08,13.97c-6.1,2.25-11.2-0.06-13.65-6.69
		l-9.1-24.65l-1.49-3.88l7.22-2.66l1.39,3.92l8.81,23.85c1.08,2.94,2.37,4.29,4.41,3.54c2.03-0.75,2.19-2.63,1.1-5.57l-8.81-23.85
		l-1.5-3.88L124.58,26.02z"/>
	<path class="st0" d="M143.93,61.67c-2.46-1.76-3.99-4.78-5.01-12.81l-1.33-10.52c-1.02-8.09-0.29-11.4,1.66-13.71
		c1.25-1.48,3.32-2.83,6.94-3.29c3.22-0.41,5.54,0.16,7.43,1.47c2.58,1.8,4.06,4.83,4.97,12.07l0.02,0.17l-7.69,0.97l-0.02-0.17
		c-0.61-4.81-1-7.92-3.89-7.55c-2.88,0.37-2.49,3.48-1.99,7.43l1.74,13.74c0.5,3.96,0.89,7.07,3.83,6.7c3-0.38,2.6-3.55,1.89-9.15
		l-0.02-0.17l7.63-0.97l0.02,0.17c1.05,8.31,0.19,11.47-1.76,13.78c-1.5,1.74-3.66,2.88-6.88,3.28
		C147.85,63.58,145.51,62.79,143.93,61.67z"/>
	<path class="st0" d="M189.95,22.82L181.5,37.1l4.91,26.31l-8.11-0.8l-3.1-17.95l-2.67,4.43l-0.85,8.68l-0.35,4.15l-7.71-0.76
		l0.46-4.14l3.18-32.27l0.35-4.15l7.71,0.76l-0.46,4.13l-0.65,6.64c-0.12,1.25-0.42,3.11-0.59,4.24l0.28,0.03l1.97-3.76l5.97-10.64
		L189.95,22.82z"/>
	<path class="st0" d="M195.42,54.19c-0.73,3.84-0.02,5.88,2.04,6.55c1.84,0.61,3.37-0.21,4.05-2.27c0.7-2.11-0.07-4.34-1.99-7.44
		l-2.46-3.99c-2.94-4.75-3.27-8.82-1.97-12.77c2.07-6.1,7.58-8.78,13.48-6.84c5.95,1.97,8.04,6.92,6.53,13.86l-7.12-1.69
		c0.59-2.87,0.29-4.89-1.6-5.51c-1.68-0.55-3.1,0.48-3.74,2.43c-0.75,2.27,0.16,4.07,1.95,7.01l2.46,3.99
		c3.03,4.84,3.49,9.07,2.13,13.19c-2.07,6.28-7.54,8.85-13.86,6.71c-6.21-2.11-8.66-7.42-6.96-14.9L195.42,54.19z"/>
	<path class="st0" d="M232.46,55.11l-6.11-3.67l3.64-6.06l6.55-4.38l2.93,1.76l-5.33,5.11l1.95,1.17L232.46,55.11z"/>
	<path class="st0" d="M237.65,71.21l-7.96,9.46l-2.64,3.22l-5.93-4.99l2.72-3.15l20.89-24.81l2.64-3.22l7.67,6.46
		c6.76,5.69,4.9,11.35,0.57,16.5l-0.07,0.09c-2.68,3.18-5.82,5.23-9.49,4.9l-8.18,17.33l-6.19-5.21l7.59-15.22L237.65,71.21z
		 M241.72,66.37l1.09,0.92c2.7,2.28,4.88,0.75,6.86-1.6l0.07-0.09c1.98-2.35,3.07-4.79,0.5-6.96l-1.18-0.99L241.72,66.37z"/>
</g>
</svg>
