<?xml version="1.0" encoding="UTF-8"?><svg id="Layer_1" xmlns="http://www.w3.org/2000/svg" viewBox="0 0 308.38 233.1"><defs><style>.cls-1{fill:#231f20;}.cls-2{fill:none;stroke:#231f20;stroke-miterlimit:10;stroke-width:5px;}</style></defs><g><path class="cls-1" d="M12.71,20.12c.04,2.35,.08,4.92,.08,6.6v5.71c0,1.13,.04,2.56,.04,4.12-4.92,0-7.94,.21-11.09,.38,.13-12.73,.29-22.26,.34-32.51,2.1,0,4.33-.04,5.63-.04,2.94,0,7.06-.55,9.2-.88,.8,3.82,2.23,10.71,3.74,17.64,1.55-6.09,3.15-14.16,3.78-16.89h6.81c1.43,0,4.28-.17,7.94-.5,.04,10.96,.17,21.47,.25,32.68-1.05,0-2.14,.04-3.36,.04-2.18,0-6.05,.25-7.73,.29v-4.28c0-1.68,.04-3.65,.04-5.5s.04-4.7,.04-7.14c-1.93,6.47-3.82,12.9-4.79,16.63-1.68,0-4.54,.17-6.34,.5-1.05-4.12-2.48-9.41-4.58-16.84Zm-5.92,13.36c.29-.04,.67-.04,1.09-.04l.13-23.94c1.51,0,2.9-.08,4.96-.29l6.89,23.44h1.85c2.1-7.1,4.41-15.12,6.68-23.19,1.55,0,2.94,0,4.75-.21l.25,24.28c.38-.04,.67-.08,1.09-.04l-.25-25.54c-2.44,.42-4.41,.42-6.13,.42h-.55c-2.27,8.19-4.33,15.46-6.6,23.23h-.29L13.76,8.02c-2.77,.38-5.38,.38-6.85,.38l-.13,25.08Z"/><path class="cls-1" d="M41.68,43.69c-.04-1.76-.25-3.36-.67-5.12,1.3,.08,2.31,.13,3.65,.13,1.68,0,2.52-.25,3.07-1.26-1.72-7.9-3.99-16.47-6.55-27.47,.46,0,8.91-.13,11.01-.38,1.09,5.5,2.23,11.68,3.28,17.6,1.01-5.84,2.02-12.22,2.86-17.52,1.47,.13,6.51,.29,7.77,.29,1.76,0,2.31-.04,2.98-.04-1.85,7.44-3.53,14.87-5,20.58-2.52,9.79-5.46,14.66-15.63,16.05-1.13,.17-3.74,.38-6.93,.42,.13-1.13,.17-2.31,.17-3.28Zm9.33-1.51c5.59-1.39,7.23-4.58,9.2-13.23l3.78-16.51c-.34,0-.55,0-1.09-.13-1.39,6.22-2.98,13.32-3.61,15.96-1.64,6.72-2.65,9.12-4.37,10.88l-7.48-26.88c-.29,.08-.76,.08-1.13,.04l7.73,27.47c-1.89,1.55-6.22,2.14-9.91,2.44,.13,.42,.13,.63,.13,.97,2.77-.21,5.12-.59,6.76-1.01Z"/><path class="cls-1" d="M77.34,4.28c4.12,0,10.67-.21,11.68-.29-.17,5.84-.25,16.09-.25,22.31,0,1.05,.29,1.3,1.05,1.3,.5,0,5.71-.04,7.86-.08,0,3.65,.63,5.71,.71,8.91-2.27-.04-9.12-.08-12.01-.08-2.06,0-8.19,.13-9.28,.13,.08-9.96,.21-19.62,.25-32.18Zm17.64,28.06l-.04-.34c-.04-.21-.04-.42-.04-.71h-10.59c-.59,0-.76-.25-.76-.84l.25-23.57-1.09,.08-.25,23.82c0,1.18,.71,1.55,1.81,1.55h10.71Z"/><path class="cls-1" d="M99.22,23.1c0-7.86,4.37-13.99,13.74-13.99,10.12,0,13.78,5.88,13.78,13.99s-4.37,14.07-13.78,14.07-13.74-5.21-13.74-14.07Zm21.76-.21c0-6.68-2.18-10.29-7.94-10.29-7.02,0-8.36,6.13-8.36,10.5,0,8.4,3.74,10.63,8.28,10.63,4.79,0,8.02-2.86,8.02-10.84Zm-15.29,.21c0-3.95,1.22-9.54,7.35-9.54,5,0,6.93,3.28,6.93,9.33,0,7.27-2.81,9.87-7.02,9.87-3.95,0-7.27-1.97-7.27-9.66Zm9.41,0c0-4.62-.67-6.3-2.14-6.3-1.39,0-2.1,2.1-2.1,6.3,0,4.5,.71,6.39,2.1,6.39s2.14-1.85,2.14-6.39Z"/><path class="cls-1" d="M134.59,37.89c.88,0,3.32-.21,4.96-.46,.25,.63,.63,1.18,.92,1.47,.25,.25,.46,.46,.76,.46,.25,0,.46-.17,.71-.46,.42-.5,.88-1.22,.88-1.97,0-.34-.08-.55-.63-.59-2.44-.08-6.51-.08-10.04-.25-3.19-.17-4.2-1.43-4.2-3.19,0-1.55,.71-2.69,2.31-4.28l2.35-2.39c-2.65-1.6-3.86-4.24-3.86-7.56,0-6.39,5.04-9.62,12.81-9.62,.88,0,1.76,.08,2.52,.17-.29-4.07,1.47-6.13,5.67-6.13,2.1,0,3.61,.29,5,.63-.21,2.31-.5,4.28-.55,6.13h-1.68c-1.47,0-2.14-.08-2.35,1.34,2.81,1.68,4.54,4.41,4.54,8.02,0,5.42-4.12,9.28-12.94,9.28-.88,0-2.1-.04-2.65-.13-.34,.46-.5,.84-.5,1.09,0,.17,.13,.42,.67,.42,2.86,.04,5.71,.04,9.33,.08,5.12,.04,5.92,2.77,5.92,4.71,0,3.44-3.78,9.24-10.42,11.17-1.01,.29-2.23,.46-3.23,.46-1.3,0-2.6-.17-4.66-.59-3.07-.63-8.19-3.02-8.86-8.61,2.31,.38,4.79,.8,7.23,.8Zm6.39,5.42c4.62,0,7.81-3.91,7.81-8.11,0-2.06-1.18-2.48-2.73-2.52l-8.82-.25c-1.89-.04-2.77-.59-2.77-1.51,0-.67,.29-1.13,1.13-2.18,.59-.76,1.47-1.81,2.86-3.4,.88,.25,1.85,.38,3.02,.38,4.87,0,7.86-1.76,7.86-7.27,0-1.18-.46-3.11-1.72-4.37-.04-.63-.04-1.51-.04-1.97,0-3.7,.92-5.08,2.98-5.08,.38,0,.67,0,1.64,.17l.08-1.05c-.67-.13-1.13-.13-1.72-.13-2.73,0-3.99,1.64-3.99,6.09v1.13c-1.13-.71-2.73-1.22-4.83-1.22-4.83,0-7.77,2.44-7.77,7.18,0,2.65,1.22,4.62,3.53,5.76l-2.69,3.23c-.84,1.01-1.47,1.97-1.47,2.81,0,1.47,1.09,2.35,4.03,2.44l8.36,.25c1.39,.04,2.02,.29,2.02,1.55,0,3.7-2.73,7.06-6.76,7.06-2.23,0-4.12-.71-5.42-2.31-.21,.17-.71,.21-1.09,.21,1.3,2.1,3.53,3.11,6.51,3.11Zm.76-30.33c5.46,0,6.59,3.53,6.59,5.46,0,4.75-2.6,6.3-6.76,6.3s-6.6-1.89-6.6-5.54c0-4.03,2.56-6.22,6.76-6.22Zm.04,9.24c1.01,0,1.51-1.43,1.51-3.02s-.5-3.07-1.51-3.07-1.51,1.43-1.51,3.07,.5,3.02,1.51,3.02Z"/><path class="cls-1" d="M156.3,23.1c0-7.86,4.37-13.99,13.74-13.99,10.12,0,13.78,5.88,13.78,13.99s-4.37,14.07-13.78,14.07-13.74-5.21-13.74-14.07Zm21.76-.21c0-6.68-2.18-10.29-7.94-10.29-7.01,0-8.36,6.13-8.36,10.5,0,8.4,3.74,10.63,8.28,10.63,4.79,0,8.02-2.86,8.02-10.84Zm-15.29,.21c0-3.95,1.22-9.54,7.35-9.54,5,0,6.93,3.28,6.93,9.33,0,7.27-2.81,9.87-7.02,9.87-3.95,0-7.27-1.97-7.27-9.66Zm9.41,0c0-4.62-.67-6.3-2.14-6.3-1.39,0-2.1,2.1-2.1,6.3,0,4.5,.71,6.39,2.1,6.39s2.14-1.85,2.14-6.39Z"/><path class="cls-1" d="M206.75,27.56l-2.27,2.98v6.43c-2.23-.21-4.37-.29-5.75-.29-1.13,0-4.62,.08-5.88,.34,.21-10.17,.38-20.84,.38-32.72,1.68,.08,3.57,.13,5.33,.13,1.93,0,3.95-.17,6.22-.38-.13,2.81-.21,7.39-.25,11.89,2.18-4.24,4.45-9.03,5.75-12.1,1.47,.17,6.01,.5,8.07,.5,1.6,0,3.19,0,5.21-.08-2.6,4.54-5.5,9.54-8.32,14.2,2.94,5.96,6.05,11.97,8.99,17.69-3.49,0-10.12,.63-13.48,1.18-1.22-3.4-2.65-6.55-3.99-9.75Zm-8.44,6.43c.38-.04,.71-.04,1.09,0,0-1.55,.08-4.12,.08-5.71l3.82-3.28c1.43-1.26,3.36-2.9,5-4.96l7.39,13.9c.46-.17,.8-.17,1.22-.17l-7.81-14.7c1.97-2.56,4.12-6.3,7.18-12.1l-1.3-.08c-1.93,3.82-3.61,6.68-5.17,9.03-2.81,4.28-4.71,6.13-10.33,10.92,0-1.93,.08-3.61,.08-5.54l.17-14.41-1.09,.08-.34,27.01Z"/><path class="cls-1" d="M226.19,20.08c0-2.98-.13-8.02-.17-10,1.34,0,10-.29,11.34-.42-.04,4.2-.34,12.27-.34,18.48,0,1.01,.08,6.17,.08,8.28-4.92,0-9.41,.17-11.34,.34,.04-2.6,.42-10.42,.42-16.68Zm-.29-19.7c1.72,0,10.5-.29,11.76-.38l-.25,7.23c-5.29,0-8.99,.17-11.43,.42l-.08-7.27Zm6.22,33.56V12.39l-1.01,.04v21.55l1.01-.04Zm.04-28.4V1.93l-1.01,.04v3.61l1.01-.04Z"/><path class="cls-1" d="M240.93,13.61V2.39c1.13,0,9.62-.17,11.51-.34-.21,4.58-.46,12.06-.46,15.75l-.04,10.29c0,2.06,.08,6.47,.13,8.15-1.43,0-9.37,.13-11.55,.29,.17-4.16,.42-14.49,.42-22.94Zm6.05-9.03l-1.01,.08c0,7.98-.13,28.4-.17,29.66h1.01c.04-.92,.17-9.87,.17-17.52V4.58Z"/><path class="cls-1" d="M255.8,13.61V2.39c1.13,0,9.62-.17,11.51-.34-.21,4.58-.46,12.06-.46,15.75l-.04,10.29c0,2.06,.08,6.47,.13,8.15-1.43,0-9.37,.13-11.55,.29,.17-4.16,.42-14.49,.42-22.94Zm6.05-9.03l-1.01,.08c0,7.98-.13,28.4-.17,29.66h1.01c.04-.92,.17-9.87,.17-17.52V4.58Z"/><path class="cls-1" d="M277.3,36.46c-3.74-1.26-7.14-4.24-7.6-9.62,1.72,.17,3.32,.34,4.79,.34,1.72,0,3.36-.17,5.88-.5,.21,.97,.46,1.64,.84,2.27,.29,.46,.67,.71,1.18,.71,.38,0,.8-.29,1.05-.67,.5-.76,.76-1.85,.76-2.23,0-.59-.29-.88-1.22-.92l-8.19-.34c-4.54-.17-5.29-2.14-5.29-4.41,0-5.67,5.38-11.97,12.73-11.97,1.89,0,3.78,.25,5.46,.76,3.86,1.22,6.85,3.95,7.48,9.12-2.94,0-4.83,0-6.81,.17-1.26,.13-2.77,.34-4.12,.63-.08-.92-.29-1.72-.55-2.23-.42-.67-.97-.84-1.26-.84-.59,0-1.05,.34-1.34,.8-.34,.55-.5,1.3-.5,2.02,0,.46,.17,.8,1.09,.84,2.48,.08,6.22,.25,9.28,.42,4.08,.21,4.5,2.27,4.5,3.82,0,5.12-3.11,9.54-7.1,11.38-1.97,.88-4.24,1.18-5.96,1.18-1.43,0-3.28-.13-5.08-.71Zm12.85-11.09c0-2.02-1.43-2.31-3.32-2.44l-8.19-.63c-2.27-.17-2.52-.92-2.52-1.89,0-3.23,2.98-6.89,6.68-6.89,2.52,0,4.54,.88,5.21,3.86,.38-.13,.67-.13,1.01-.13-.8-3.57-3.07-4.71-6.34-4.71-4.41,0-7.56,4.24-7.56,7.86,0,1.51,.42,2.6,3.11,2.81l8.44,.67c1.26,.13,2.48,.25,2.48,1.55,0,3.49-3.11,7.23-6.76,7.23-3.11,0-4.92-1.51-5.92-3.82-.34,.17-.8,.21-1.13,.21,1.18,2.73,3.11,4.54,7.02,4.54,4.37,0,7.81-4.07,7.81-8.23Z"/><path class="cls-1" d="M297.42,27.14c1.22,.13,3.82,.17,4.71,.17,2.31,0,4.2-.04,6.26-.08l-.25,9.24c-1.81-.04-4.03-.21-5.75-.21-.55,0-3.32,0-4.87,.21l-.08-9.33Zm4.96,6.64v.8c.34-.04,.67-.04,1.01,0,0-.21,.04-1.01,.04-1.97,0-.88,.04-2.18,.04-3.53-.34,.04-.8,.04-1.05,0,0,2.1-.04,3.82-.04,4.7Z"/></g><line class="cls-2" x1="9.64" y1="67.34" x2="65.64" y2="132.34"/><line class="cls-2" x1="66.64" y1="75.34" x2="1.74" y2="138.34"/><line class="cls-2" x1="158.08" y1="71.34" x2="214.08" y2="136.34"/><line class="cls-2" x1="215.08" y1="79.34" x2="150.18" y2="142.34"/><path class="cls-2" d="M34.19,232.34s42.45-133,181.45-38"/></svg>