<?xml version="1.0" encoding="UTF-8"?>
<svg id="a" data-name="Layer 1 copy" xmlns="http://www.w3.org/2000/svg" width="480.077" height="379.378" viewBox="0 0 480.077 379.378">
  <g id="b" data-name="Artwork 2">
    <g>
      <path d="M59.982,13.159h-13.508V0h92.295l-4.592,13.144h-20.789v22.058h-16.919V13.144h-19.526v22.058h-16.962V13.159ZM10.373,35.202h16.96V0H10.358l-4.592,13.144h4.607v22.058Z" fill="#003058" stroke-width="0"/>
      <path d="M76.944,37.519v27.68H20.177c-5.414,0-9.803-4.389-9.803-9.803v-17.878h16.96v14.536h32.649v-14.536h16.962ZM96.47,65.199h16.919v-27.68h-16.919v27.68Z" fill="#ba1c21" stroke-width="0"/>
      <polygon points="120.66 60.969 118.997 60.969 118.997 60.181 123.254 60.181 123.254 60.969 121.592 60.969 121.592 65.198 120.66 65.198 120.66 60.969" fill="#ba1c21" stroke-width="0"/>
      <polygon points="128.568 65.198 128.561 61.872 126.912 64.624 126.497 64.624 124.848 61.916 124.848 65.198 123.959 65.198 123.959 60.181 124.726 60.181 126.719 63.507 128.676 60.181 129.443 60.181 129.45 65.198 128.568 65.198" fill="#ba1c21" stroke-width="0"/>
    </g>
  </g>
  <g>
    <path d="M13.435,76.915c10.65,0,14.569,5.288,14.569,12.129,0,8.135-4.622,12.203-13.016,12.203H6.41v-24.332h7.026ZM10.033,97.993h4.918c6.397,0,9.355-2.7,9.355-8.949,0-4.955-2.551-8.874-10.206-8.874h-4.068v17.823Z" fill="#ba1c21" stroke-width="0"/>
    <path d="M36.621,90.265v7.728h14.68v3.254h-18.304v-24.332h17.564v3.254h-13.941v7.063h12.461v3.032h-12.461Z" fill="#ba1c21" stroke-width="0"/>
    <path d="M54.038,99.546l1.22-3.106c1.923.925,4.992,1.997,8.024,1.997,4.215,0,6.212-1.923,6.212-4.364,0-1.109-.555-2.034-1.479-2.589-.961-.591-2.736-.925-4.992-1.183-2.589-.296-4.474-.703-5.99-1.516-2.293-1.22-3.143-3.18-3.143-5.288,0-3.957,3.772-7.026,9.281-7.026,3.439,0,6.138.703,8.394,1.775l-1.183,3.032c-1.738-.74-4.696-1.553-7.211-1.553-4.252,0-5.657,1.96-5.657,3.772,0,.925.37,1.812,1.553,2.515.962.555,2.441.739,4.696,1.035,2.367.333,4.622.777,5.953,1.516,2.219,1.22,3.254,3.032,3.254,5.51,0,4.289-3.624,7.617-9.651,7.617-3.919,0-6.767-.776-9.281-2.144Z" fill="#ba1c21" stroke-width="0"/>
    <path d="M81.586,76.915v24.332h-3.623v-24.332h3.623Z" fill="#ba1c21" stroke-width="0"/>
    <path d="M90.277,89.229c0,5.695,4.031,9.208,8.505,9.208,3.402,0,6.286-1.48,7.322-2.478v-4.363h-6.767v-3.032h10.391v12.683h-2.551l-.999-2.847h-.259c-1.812,2.625-4.031,3.291-7.137,3.291-7.839,0-12.202-5.509-12.202-12.461,0-7.433,5.214-12.757,12.794-12.757,5.066,0,7.839,1.849,9.577,3.439l-1.738,2.81c-2.367-1.812-4.585-2.995-7.839-2.995-5.768,0-9.096,4.031-9.096,9.503Z" fill="#ba1c21" stroke-width="0"/>
    <path d="M134.502,76.915h3.624v24.332h-3.254l-15.161-18.6h-.074s.37,4.178.37,6.176v12.424h-3.623v-24.332h3.254l15.161,18.6h.074s-.37-4.252-.37-5.658v-12.942Z" fill="#ba1c21" stroke-width="0"/>
  </g>
  <g id="c" data-name="Artwork 34">
    <g>
      <path d="M5.404,110.044v3.511c0,1.645-1.22,2.415-2.698,2.415-1.486,0-2.707-.769-2.707-2.415v-3.511h1.238v3.467c0,.84.478,1.362,1.468,1.362.973,0,1.459-.522,1.459-1.362v-3.467h1.238Z" fill="#003058" stroke-width="0"/>
      <polygon points="10.3 111.141 8.16 111.141 8.16 110.044 13.679 110.044 13.679 111.141 11.538 111.141 11.538 115.864 10.3 115.864 10.3 111.141" fill="#003058" stroke-width="0"/>
      <path d="M18.919,110.044l2.494,5.82h-1.353l-.584-1.353h-2.406l-.575,1.353h-1.353l2.494-5.82h1.282ZM17.398,113.599h1.751l-.363-.84c-.159-.362-.487-1.415-.487-1.415h-.044s-.345,1.044-.495,1.415l-.363.84Z" fill="#003058" stroke-width="0"/>
      <polygon points="25.42 110.044 25.42 112.317 28.136 112.317 28.136 110.044 29.374 110.044 29.374 115.864 28.136 115.864 28.136 113.414 25.42 113.414 25.42 115.864 24.182 115.864 24.182 110.044 25.42 110.044" fill="#003058" stroke-width="0"/>
      <polygon points="38.677 111.141 36.537 111.141 36.537 110.044 42.056 110.044 42.056 111.141 39.916 111.141 39.916 115.864 38.677 115.864 38.677 111.141" fill="#003058" stroke-width="0"/>
      <polygon points="46.067 113.37 46.067 114.785 49.348 114.785 49.348 115.864 44.828 115.864 44.828 110.044 49.189 110.044 49.189 111.132 46.067 111.132 46.067 112.414 48.818 112.414 48.818 113.37 46.067 113.37" fill="#003058" stroke-width="0"/>
      <path d="M51.972,113.007c0-1.69,1.274-3.069,3.184-3.069,1.212,0,1.822.433,2.238.761l-.486.982c-.469-.398-1.017-.646-1.698-.646-1.212,0-1.937.876-1.937,1.963,0,1.07.726,1.875,1.99,1.875.885,0,1.459-.451,1.84-.787l.486.902c-.318.354-1.123.982-2.415.982-2.185,0-3.202-1.371-3.202-2.963" fill="#003058" stroke-width="0"/>
      <polygon points="61.757 110.044 61.757 112.317 64.472 112.317 64.472 110.044 65.711 110.044 65.711 115.864 64.472 115.864 64.472 113.414 61.757 113.414 61.757 115.864 60.518 115.864 60.518 110.044 61.757 110.044" fill="#003058" stroke-width="0"/>
      <path d="M78.853,110.044v3.511c0,1.645-1.22,2.415-2.698,2.415-1.486,0-2.707-.769-2.707-2.415v-3.511h1.238v3.467c0,.84.478,1.362,1.468,1.362.973,0,1.459-.522,1.459-1.362v-3.467h1.238Z" fill="#003058" stroke-width="0"/>
      <path d="M86.546,110.044h1.238v5.82h-1.159l-3.184-3.892h-.018s.08.893.08,1.335v2.556h-1.238v-5.82h1.177l3.166,3.874h.018s-.08-.902-.08-1.238v-2.636Z" fill="#003058" stroke-width="0"/>
      <rect x="91.231" y="110.044" width="1.238" height="5.82" fill="#003058" stroke-width="0"/>
      <path d="M95.219,110.044h1.389l1.309,3.105c.115.292.336,1.079.336,1.079h.053s.221-.787.336-1.079l1.3-3.105h1.397l-2.441,5.82h-1.238l-2.441-5.82Z" fill="#003058" stroke-width="0"/>
      <polygon points="104.973 113.37 104.973 114.785 108.255 114.785 108.255 115.864 103.735 115.864 103.735 110.044 108.095 110.044 108.095 111.132 104.973 111.132 104.973 112.414 107.724 112.414 107.724 113.37 104.973 113.37" fill="#003058" stroke-width="0"/>
      <path d="M111.354,110.044h2.22c1.61,0,2.326.796,2.326,1.884,0,.654-.274,1.274-.937,1.592v.027l1.433,2.317h-1.389l-1.326-2.105h-1.088v2.105h-1.238v-5.82ZM113.486,112.821c.831,0,1.185-.256,1.185-.867,0-.495-.248-.849-1.114-.849h-.964v1.716h.893Z" fill="#003058" stroke-width="0"/>
      <rect x="126.998" y="110.044" width="1.238" height="5.82" fill="#003058" stroke-width="0"/>
      <polygon points="133.136 111.141 130.995 111.141 130.995 110.044 136.515 110.044 136.515 111.141 134.374 111.141 134.374 115.864 133.136 115.864 133.136 111.141" fill="#003058" stroke-width="0"/>
      <path d="M142.183,115.864h-1.238v-2.37l-2.335-3.449h1.424l1.044,1.504c.079.133.469.849.469.849h.026s.407-.716.495-.849l1.035-1.504h1.433l-2.353,3.449v2.37Z" fill="#003058" stroke-width="0"/>
      <path d="M122.571,111.476c-.218-.323-.584-.532-1.124-.532s-.837.314-.837.741c0,.349.174.567.61.706l.75.227c1.054.331,1.438.872,1.438,1.621,0,1.142-.889,1.804-2.118,1.804-1.299,0-1.865-.619-2.109-1.081l.784-.645c.218.41.523.75,1.325.75.601,0,.933-.297.933-.741,0-.366-.218-.575-.663-.715l-.741-.227c-1.029-.322-1.394-.898-1.394-1.63,0-.915.575-1.787,2.022-1.787,1.02,0,1.595.418,1.909.872l-.784.636Z" fill="#003058" stroke-width="0"/>
    </g>
  </g>
</svg>